# Blender 4.1.1
# www.blender.org
mtllib floor.mtl
o floor
v -0.982000 -0.981000 1.000000
v 0.994000 -0.982000 1.000000
v 0.994000 -0.982000 -1.000000
v -0.972000 -0.982000 -1.000000
v -0.994000 0.982000 1.000000
v -0.994000 0.982000 -1.000000
v 0.994000 0.982000 -1.000000
v 0.994000 0.982000 1.000000
v -0.972000 -0.982000 -1.000000
v 0.994000 -0.982000 -1.000000
v 0.994000 0.982000 -1.000000
v -0.994000 0.982000 -1.000000
vn 0.0005 1.0000 -0.0000
vn -0.0000 1.0000 -0.0005
vn -0.0000 -1.0000 -0.0000
vn -0.0000 -0.0000 1.0000
s 0
f 1//1 2//1 3//1
f 3//2 4//2 1//2
f 5//3 6//3 7//3
f 7//3 8//3 5//3
f 9//4 10//4 11//4
f 11//4 12//4 9//4
