# Blender 4.1.1
# www.blender.org
mtllib shorta.mtl
o shortbox
v 0.499726 -0.457339 0.698332
v 0.651297 -0.457339 0.193097
v 0.152377 -0.457339 0.044684
v -0.005510 -0.457339 0.543604
v -0.005510 -0.978364 0.543604
v -0.005510 -0.457339 0.543604
v 0.152377 -0.457339 0.044684
v 0.152377 -0.978363 0.044684
v 0.499726 -0.978364 0.698332
v 0.499726 -0.457339 0.698332
v -0.005510 -0.457339 0.543604
v -0.005510 -0.978364 0.543604
v 0.651297 -0.978363 0.193097
v 0.651297 -0.457339 0.193097
v 0.499726 -0.457339 0.698332
v 0.499726 -0.978364 0.698332
v 0.152377 -0.978363 0.044684
v 0.152377 -0.457339 0.044684
v 0.651297 -0.457339 0.193097
v 0.651297 -0.978363 0.193097
vn -0.0000 1.0000 -0.0000
vn -0.9534 -0.0000 -0.3017
vn -0.2928 -0.0000 0.9562
vn 0.9578 -0.0000 0.2873
vn 0.2851 -0.0000 -0.9585
s 0
f 1//1 2//1 3//1
f 1//1 3//1 4//1
f 5//2 6//2 7//2
f 5//2 7//2 8//2
f 9//3 10//3 11//3
f 9//3 11//3 12//3
f 13//4 14//4 15//4
f 13//4 15//4 16//4
f 17//5 18//5 19//5
f 17//5 19//5 20//5
