# Blender 4.1.1
# www.blender.org
mtllib cornell_box.mtl
o cbox_green
v -0.000084 0.000042 -559.200012
v 0.000000 0.000000 0.000000
v 0.000000 548.799988 0.000041
v -0.000084 548.800049 -559.199951
vn -1.0000 -0.0000 -0.0000
s 0
usemtl cbox_green
f 3//1 1//1 2//1
f 3//1 4//1 1//1
o cbox
v -549.600037 0.000042 -559.199951
v -552.799988 0.000000 0.000083
v -0.000084 0.000042 -559.200012
v 0.000000 0.000000 0.000000
v 0.000000 548.799988 0.000041
v -0.000084 548.800049 -559.199951
v -556.000061 548.800049 -559.199890
v -556.000000 548.799988 0.000125
vn -0.0000 1.0000 -0.0000
vn -0.0000 -1.0000 -0.0000
vn -0.0000 -0.0000 1.0000
s 0
usemtl cbox
f 5//2 8//2 7//2
f 10//3 12//3 11//3
f 10//4 5//4 7//4
f 5//2 6//2 8//2
f 10//3 9//3 12//3
f 10//4 11//4 5//4
o Light
v -213.000000 547.799988 -227.000015
v -213.000000 547.799988 -332.000000
v -343.000000 547.799988 -227.000000
v -343.000000 547.799988 -332.000000
vn -0.0000 -1.0000 -0.0000
s 0
usemtl Light
f 15//5 14//5 13//5
f 15//5 16//5 14//5
o large_box
v -422.352661 0.000046 -247.760956
v -422.352661 330.000061 -247.761017
v -471.239044 330.000000 -405.352661
v -471.239044 0.000015 -405.352600
v -264.761017 0.000046 -296.647339
v -264.761017 330.000061 -296.647400
v -313.647400 330.000000 -454.239044
v -313.647400 0.000015 -454.238983
vn 0.2963 -0.0000 0.9551
vn -0.0000 1.0000 -0.0000
vn -0.2963 -0.0000 -0.9551
vn -0.0000 -1.0000 -0.0000
vn -0.9551 -0.0000 0.2963
vn 0.9551 -0.0000 -0.2963
s 0
usemtl large_box
f 22//6 17//6 21//6
f 23//7 18//7 22//7
f 24//8 19//8 23//8
f 21//9 20//9 24//9
f 18//10 20//10 17//10
f 23//11 21//11 24//11
f 22//6 18//6 17//6
f 23//7 19//7 18//7
f 24//8 20//8 19//8
f 21//9 17//9 20//9
f 18//10 19//10 20//10
f 23//11 22//11 21//11
o small_box
v -129.536377 0.000000 -66.353592
v -129.536377 165.000015 -66.353577
v -287.646423 165.000015 -113.536346
v -287.646423 0.000000 -113.536362
v -82.353600 0.000015 -224.463654
v -82.353600 165.000031 -224.463638
v -240.463654 165.000031 -271.646423
v -240.463654 0.000015 -271.646423
vn 0.9582 -0.0000 0.2860
vn -0.0000 1.0000 -0.0000
vn -0.9582 -0.0000 -0.2860
vn -0.0000 -1.0000 -0.0000
vn -0.2860 -0.0000 0.9582
vn 0.2860 -0.0000 -0.9582
s 0
usemtl small_box
f 30//12 25//12 29//12
f 31//13 26//13 30//13
f 32//14 27//14 31//14
f 29//15 28//15 32//15
f 26//16 28//16 25//16
f 31//17 29//17 32//17
f 30//12 26//12 25//12
f 31//13 27//13 26//13
f 32//14 28//14 27//14
f 29//15 25//15 28//15
f 26//16 27//16 28//16
f 31//17 30//17 29//17
o cbox_red
v -549.600037 0.000042 -559.199951
v -552.799988 0.000000 0.000083
v -556.000061 548.800049 -559.199890
v -556.000000 548.799988 0.000125
vn 0.9999 0.0117 0.0057
vn 1.0000 0.0058 -0.0000
s 0
usemtl cbox_red
f 35//18 34//18 33//18
f 35//19 36//19 34//19
