# Blender 4.1.1
# www.blender.org
mtllib light.mtl
o Light
v 0.3000000 0.980000 -0.2000000
v 0.3000000 0.980000 0.2000000
v -0.3000000 0.980000 0.2000000
v -0.3000000 0.980000 -0.2000000
v 0.3000000 0.996355 -0.2000000
v 0.3000000 0.996355 0.2000000
v -0.3000000 0.996355 0.2000000
v -0.3000000 0.996355 -0.2000000

vn 0.000000 0.000000 -1.000000
vn 0.000000 0.000000 1.000000
vn -1.000000 0.000000 0.000000
vn 1.000000 0.000000 0.000000
vn 0.000000 -1.000000 0.000000

f 1//1 4//1 8//1 5//1
f 3//2 2//2 6//2 7//2
f 4//3 3//3 7//3 8//3
f 2//4 1//4 5//4 6//4
f 4//5 1//5 2//5 3//5