# Blender 4.1.1
# www.blender.org
mtllib large.mtl
o large_box
v -0.519254 -1.000000 0.113873
v -0.519254 0.202624 0.113873
v -0.695104 0.202624 -0.449759
v -0.695104 -1.000000 -0.449759
v 0.047622 -1.000000 -0.060971
v 0.047622 0.202624 -0.060971
v -0.128228 0.202624 -0.624603
v -0.128228 -1.000000 -0.624603
vn 0.2962 -0.0000 0.9551
vn -0.0000 1.0000 -0.0000
vn -0.2962 -0.0000 -0.9551
vn -0.0000 -1.0000 -0.0000
vn -0.9551 -0.0000 0.2964
vn 0.9551 -0.0000 -0.2964
usemtl large_box.001
f 6//1 1//1 5//1
f 7//2 2//2 6//2
f 8//3 3//3 7//3
f 5//4 4//4 8//4
f 2//5 4//5 1//5
f 7//6 5//6 8//6
f 6//1 2//1 1//1
f 7//2 3//2 2//2
f 8//3 4//3 3//3
f 5//4 1//4 4//4
f 2//5 3//5 4//5
f 7//6 6//6 5//6
