# Blender 4.1.1
# www.blender.org
mtllib large.mtl
o large_box
v 0.146809 -1.000000 0.510920
v 0.146809 0.202624 0.510920
v -0.404440 0.202624 0.722414
v -0.404439 -1.000000 0.722414
v -0.063888 -1.000000 -0.043630
v -0.063888 0.202624 -0.043630
v -0.615137 0.202624 0.167864
v -0.615137 -1.000000 0.167864
vn 0.9343 -0.0000 -0.3566
vn -0.0000 1.0000 -0.0000
vn -0.9343 -0.0000 0.3566
vn -0.0000 -1.0000 -0.0000
vn 0.3568 -0.0000 0.9342
vn -0.3568 -0.0000 -0.9342
s 0
usemtl large_box.002
f 6//1 1//1 5//1
f 7//2 2//2 6//2
f 8//3 3//3 7//3
f 5//4 4//4 8//4
f 2//5 4//5 1//5
f 7//6 5//6 8//6
f 6//1 2//1 1//1
f 7//2 3//2 2//2
f 8//3 4//3 3//3
f 5//4 1//4 4//4
f 2//5 3//5 4//5
f 7//6 6//6 5//6
