# Blender 4.1.1
# www.blender.org
mtllib small.mtl
o small_box
v 0.534042 -1.000000 0.762683
v 0.534042 -0.398688 0.762684
v -0.034699 -0.398688 0.593933
v -0.034699 -1.000000 0.593933
v 0.703764 -1.000000 0.197197
v 0.703764 -0.398688 0.197197
v 0.135023 -0.398688 0.028446
v 0.135023 -1.000000 0.028446
vn 0.9582 -0.0000 0.2860
vn -0.0000 1.0000 -0.0000
vn -0.9582 -0.0000 -0.2860
vn -0.0000 -1.0000 -0.0000
vn -0.2860 -0.0000 0.9582
vn 0.2859 -0.0000 -0.9583
vn 0.2860 -0.0000 -0.9582
s 0
usemtl small_box.001
f 6//1 1//1 5//1
f 7//2 2//2 6//2
f 8//3 3//3 7//3
f 5//4 4//4 8//4
f 2//5 4//5 1//5
f 7//6 5//6 8//6
f 6//1 2//1 1//1
f 7//2 3//2 2//2
f 8//3 4//3 3//3
f 5//4 1//4 4//4
f 2//5 3//5 4//5
f 7//7 6//7 5//7
